<?xml version="1.0" encoding="UTF-8"?><!DOCTYPE svg PUBLIC "-//W3C//DTD SVG 1.1//EN" "http://www.w3.org/Graphics/SVG/1.1/DTD/svg11.dtd"><svg xmlns="http://www.w3.org/2000/svg"><symbol id="about" viewBox="0 0 24 24"><path d="M3 5v14a2 2 0 0 0 2 2h14c1.1 0 2-.9 2-2V5c0-1.1-.9-2-2-2H5a2 2 0 0 0-2 2zm12 4c0 1.66-1.34 3-3 3s-3-1.34-3-3 1.34-3 3-3 3 1.34 3 3zm-9 8c0-2 4-3.1 6-3.1s6 1.1 6 3.1v1H6v-1z"/><path d="M0 0h24v24H0z" fill="none"/></symbol><symbol id="idea" viewBox="0 0 512 512"><path d="M256.003 94.976c-77.973 0-141.41 63.435-141.41 141.41 0 47.073 23.706 91.179 62.458 117.326v18.797h157.903v-18.797c38.752-26.146 62.459-70.253 62.459-117.326.001-77.974-63.436-141.41-141.41-141.41zm46.844 151.227l-45 60.798c-5.418 7.321-15.747 8.865-23.069 3.445-7.322-5.419-8.865-15.748-3.445-23.069l25.529-34.493h-34.444c-13.532 0-21.294-15.447-13.258-26.306l44.999-60.798c5.421-7.322 15.748-8.864 23.069-3.445 7.321 5.419 8.865 15.747 3.445 23.069l-25.529 34.493h34.444c13.534 0 21.296 15.448 13.259 26.306zM177.053 405.496v43.246c0 9.109 7.385 16.494 16.494 16.494h1.395C202.218 492.142 226.829 512 256.004 512s53.787-19.858 61.063-46.764h1.395c9.109 0 16.494-7.385 16.494-16.494v-43.246H177.053zM72.519 219.921H36.085c-9.109 0-16.494 7.385-16.494 16.494s7.385 16.494 16.494 16.494h36.433c9.109 0 16.494-7.385 16.494-16.494s-7.385-16.494-16.493-16.494zM137.92 95.008l-25.762-25.762c-6.44-6.441-16.884-6.441-23.325 0-6.441 6.441-6.441 16.884 0 23.325l25.762 25.762c6.44 6.441 16.884 6.442 23.325 0 6.441-6.441 6.441-16.884 0-23.325zM256 0c-9.109 0-16.494 7.385-16.494 16.494v36.433c0 9.109 7.385 16.494 16.494 16.494s16.494-7.385 16.494-16.494V16.494C272.494 7.385 265.109 0 256 0zm219.915 219.921h-36.433c-9.109 0-16.494 7.385-16.494 16.494s7.385 16.494 16.494 16.494h36.433c9.109 0 16.494-7.385 16.494-16.494-.001-9.109-7.384-16.494-16.494-16.494zM423.168 69.247c-6.439-6.44-16.883-6.441-23.325 0L374.08 95.009c-6.441 6.441-6.441 16.884 0 23.325 6.44 6.44 16.883 6.44 23.325 0l25.763-25.762c6.441-6.441 6.441-16.884 0-23.325z" fill="#f4d800"/></symbol><symbol id="msg" viewBox="0 0 24 24"><path d="M20 2H4c-1.1 0-1.99.9-1.99 2L2 22l4-4h14c1.1 0 2-.9 2-2V4c0-1.1-.9-2-2-2zm-2 12H6v-2h12v2zm0-3H6V9h12v2zm0-3H6V6h12v2z"/><path d="M0 0h24v24H0z" fill="none"/></symbol><symbol id="plus" viewBox="0 0 27.483 27.483"><path d="M27.095 12.917L13.443.782c-.5-.444-1.456-.795-2.124-.781L1.454.213A1.284 1.284 0 0 0 .213 1.454L0 11.319c-.014.668.337 1.624.781 2.123l12.135 13.652c.444.5 1.194.521 1.667.048l12.56-12.561a1.133 1.133 0 0 0-.048-1.664zM6.684 6.684a1.824 1.824 0 0 1-2.579-2.578 1.822 1.822 0 0 1 2.577 0 1.82 1.82 0 0 1 .002 2.578zm13.14 8.06h-4.557v4.795h-2.136v-4.795H8.575v-2.048h4.557V7.944h2.136v4.752h4.557v2.048z" fill="#f4d800"/></symbol></svg>